<svg id="Layer_1" data-name="Layer 1" xmlns="http://www.w3.org/2000/svg" xmlns:xlink="http://www.w3.org/1999/xlink" viewBox="0 0 430.63 190.07">
  <defs>
    <style>
      .cls-1 {
        fill: none;
      }

      .cls-2 {
        fill: #fff;
      }

      .cls-3 {
        fill: #333b7e;
      }

      .cls-4 {
        fill: url(#linear-gradient);
      }

      .cls-5 {
        clip-path: url(#clip-path);
      }

      .cls-6 {
        fill: url(#linear-gradient-2);
      }
    </style>
    <linearGradient id="linear-gradient" x1="271.64" y1="999.14" x2="412.74" y2="999.14" gradientTransform="translate(-0.66 -876.82)" gradientUnits="userSpaceOnUse">
      <stop offset="0" stop-color="#f7941d"/>
      <stop offset="1" stop-color="#ef4136"/>
    </linearGradient>
    <clipPath id="clip-path">
      <path class="cls-1" d="M298.18,151.72l-5.3-2.7-3.4,6.8-5.4-2.7,3.4-6.8L271,138l1.9-3.9,24.5-11.9,6,3-23.3,11.4,9.8,5,3-6.1,5.2,2.6-3,6,5.3,2.7Zm35.5,1.1-5.2,5.6.2,8.6-6.2.1-.8-33.6,6.2-.1.4,17.2,16.2-17.6,7-.2-13.8,15.4,15.4,18.2-7.3.2Zm18.3-21.9,5.5-3,16.1,29.5-5.5,3Zm9-7.1,10.5-10.3c7.8-7.6,17.8-8.1,24.9-.9s6.5,17.2-1.3,24.8l-10.5,10.3Zm30.2,10.1c5.3-5.2,5.6-11.9.7-16.9s-11.5-4.8-16.9.4l-5.8,5.7,16.1,16.4Zm16.7-29.6-4.8-2.3A19.1,19.1,0,0,0,407,91c.1-5.2-1.7-7.5-4.2-7.5-7.3-.1-2.9,19.9-15.4,19.7-5.4-.1-10-4.5-9.8-13.7a20.78,20.78,0,0,1,3.2-11.1l4.8,2.1a18.7,18.7,0,0,0-2.8,9.2c-.1,5.2,1.9,7.3,4.4,7.4,7.1.1,2.9-19.9,15.2-19.6,5.4.1,9.9,4.6,9.7,13.8,0,5.1-1.8,10.3-4.2,13Z"/>
    </clipPath>
    <linearGradient id="linear-gradient-2" x1="271.72" y1="998.27" x2="412.82" y2="998.27" gradientTransform="translate(0 -876)" xlink:href="#linear-gradient"/>
  </defs>
  <title>Math Adventures Logo Web</title>
  <g>
    <path class="cls-2" d="M419.68,139.11a94.22,94.22,0,0,0,10.37-54.59c-1.4-9.16-5.38-17.08-11.21-21.91-6.43-5.34-14.93-7.12-25.28-5.29-18.18,3.21-37.05,12.5-43.71,16,1.93,3.23,4.64,9.41,4.64,18.76a21.78,21.78,0,0,1-6.6,16.22A16.94,16.94,0,0,1,336.47,113c-.36,0-.72,0-1.08,0a23.07,23.07,0,0,1-7.65-1.8c-5.82-2.53-20.42-10.67-24.8-13.13l-82,43.54,70.38,37.4A95.27,95.27,0,0,0,419.68,139.11Z"/>
    <path class="cls-2" d="M214.16,139.22h0l87.6-46.5h0l43-22.59c1.32-.75,24.67-13.83,47.85-17.93,11.93-2.1,21.85,0,29.51,6.41.68.56,1.33,1.17,2,1.79A94.09,94.09,0,0,0,335.58,0a96.21,96.21,0,0,0-44.49,11L216.6,50.72h0l-87.7,46.6h0l-25.6,13.6h0A17.94,17.94,0,1,1,103,79l24.64,13.08,82.16-43.66-69.48-36.9-.94-.47a95,95,0,1,0,0,168l.86-.47,73.84-39.32Z"/>
  </g>
  <path class="cls-3" d="M56,80.05,33.73,78.84l17.83,12.1-.17,2.83-18.76,10,22,1.24L54.28,111l-33.56-1.91.29-5.14L44,91.85,22.49,77.54l.29-5.14,33.55,1.81Z"/>
  <path class="cls-3" d="M74.47,52.56l-14.18,9L61.65,70l-5.34,3.48L51,37l5.14-3.3L87,53.77l-5.44,3.48Zm-4.38-3L56.84,40.63l2.67,15.72Z"/>
  <path class="cls-3" d="M93.09,27.27,82,26.8l.18-5.29,28.48,1.13-.18,5.3-11.09-.47L98.25,55.76,92,55.46Z"/>
  <path class="cls-3" d="M151.36,41.52l-14.8,30.2-5.6-2.8,6.3-12.9-15.6-7.6-6.3,12.9-5.7-2.8,14.8-30.2,5.6,2.7L124,43.52l15.6,7.7,6.1-12.4Z"/>
  <g>
    <path class="cls-4" d="M298.18,151.72l-5.3-2.7-3.4,6.8-5.4-2.7,3.4-6.8L271,138l1.9-3.9,24.5-11.9,6,3-23.3,11.4,9.8,5,3-6.1,5.2,2.6-3,6,5.3,2.7Zm35.5,1.1-5.2,5.6.2,8.6-6.2.1-.8-33.6,6.2-.1.4,17.2,16.2-17.6,7-.2-13.8,15.4,15.4,18.2-7.3.2Zm18.3-21.9,5.5-3,16.1,29.5-5.5,3Zm9-7.1,10.5-10.3c7.8-7.6,17.8-8.1,24.9-.9s6.5,17.2-1.3,24.8l-10.5,10.3Zm30.2,10.1c5.3-5.2,5.6-11.9.7-16.9s-11.5-4.8-16.9.4l-5.8,5.7,16.1,16.4Zm16.7-29.6-4.8-2.3A19.1,19.1,0,0,0,407,91c.1-5.2-1.7-7.5-4.2-7.5-7.3-.1-2.9,19.9-15.4,19.7-5.4-.1-10-4.5-9.8-13.7a20.78,20.78,0,0,1,3.2-11.1l4.8,2.1a18.7,18.7,0,0,0-2.8,9.2c-.1,5.2,1.9,7.3,4.4,7.4,7.1.1,2.9-19.9,15.2-19.6,5.4.1,9.9,4.6,9.7,13.8,0,5.1-1.8,10.3-4.2,13Z"/>
    <g class="cls-5">
      <rect class="cls-6" x="271.08" y="77.42" width="141.1" height="89.7"/>
    </g>
  </g>
  <g>
    <path class="cls-3" d="M60.35,153.38,47,143.25l-7.34,4.2-5.12-3.88L66.83,125.9l4.89,3.71-8.17,35.94-5.21-3.94Zm1.31-5.15,3.81-15.53L51.6,140.62Z"/>
    <path class="cls-3" d="M77.74,134.32l14.66.87c10.88.65,17.9,7.81,17.3,17.87s-8.43,16.33-19.31,15.68l-14.66-.88Zm12.68,29.13c7.48.44,12.59-3.82,13-10.77s-4.15-11.79-11.62-12.23L83.65,140l-1.38,23Z"/>
    <path class="cls-3" d="M138.79,117l2.58,36.56-5.44,2.84-28.57-23,6-3.13,21.9,17.8-2-28.2Z"/>
    <path class="cls-3" d="M177.41,128.84l2.42,4.64L157.5,145.15l-15.56-29.78L163.68,104l2.42,4.64-16.21,8.47,4.05,7.74,14.38-7.51,2.37,4.55-14.37,7.52,4.29,8.21Z"/>
    <path class="cls-3" d="M196.86,86.65l15.57,29.78-4.55,2.38-27-11.58,10.54,20.17L186,130.27,170.4,100.49,175,98.11l27,11.58L191.37,89.52Z"/>
    <path class="cls-3" d="M213.36,84l-9.87,5.16L201,84.48,226.3,71.26l2.45,4.68-9.87,5.16L232,106.19l-5.53,2.89Z"/>
    <path class="cls-3" d="M238.47,86.29,229.68,69.5l5.53-2.9,8.68,16.59c3.2,6.12,7.34,7.31,12.15,4.8s6.15-6.57,2.94-12.7l-8.67-16.58,5.44-2.85,8.79,16.8c4.54,8.67,2.11,16-6,20.2S243,95,238.47,86.29Z"/>
    <path class="cls-3" d="M298.54,71.39,287.9,65.86c-.37.24-.75.44-1.13.64L280.05,70l4.54,8.68-5.53,2.89L263.49,51.81l12.24-6.4c7.83-4.1,14.77-2.64,18.22,4a10.76,10.76,0,0,1-1.42,12.71l12,6.2ZM277.93,50.22l-6.47,3.38,6.21,11.86,6.46-3.38c4.85-2.53,6.2-6.06,4.25-9.8S282.77,47.68,277.93,50.22Z"/>
    <path class="cls-3" d="M330.07,49l2.42,4.64L310.16,65.32,294.59,35.54l21.73-11.37,2.43,4.64-16.21,8.47,4,7.75L321,37.51l2.38,4.55L309,49.58l4.29,8.21Z"/>
    <path class="cls-3" d="M336.46,48.83l0-5.3a18.61,18.61,0,0,0,11.62-1.19c4.77-2.15,6-4.77,5-7-3-6.61-19.23,5.93-24.36-5.44-2.23-4.95-.18-10.92,8.22-14.71a21.16,21.16,0,0,1,11.41-1.88l.2,5.22a18.79,18.79,0,0,0-9.53,1.4c-4.72,2.14-5.82,4.84-4.77,7.16,2.94,6.52,19.18-5.91,24.25,5.33,2.21,4.9.12,10.9-8.28,14.68C345.42,49.21,340,49.88,336.46,48.83Z"/>
  </g>
</svg>
